/* XPM */
static char * hide_active_xpm[] = {
"16 16 3 1",
" 	c None",
".	c #002B36",
"+	c #DCDCDC",
"................",
"................",
"................",
"................",
"................",
"................",
"................",
"....++++++++....",
"....++++++++....",
"................",
"................",
"................",
"................",
"................",
"................",
"................"};
